<svg version="1.1" xmlns="http://www.w3.org/2000/svg" width="400" height="400" viewBox="761 341 400 400">
<path fill="#229CE0" d="
M868.007874,463.064209
	C869.673218,453.471130 871.396484,444.328827 872.971863,435.161102
	C875.046265,423.089355 876.903564,410.978638 879.169800,398.944092
	C879.394287,397.751678 881.795044,396.157074 883.212769,396.129364
	C894.874146,395.901489 906.541992,396.000305 918.207825,396.000000
	C919.535400,395.999969 920.863037,396.000000 922.789124,396.000000
	C938.637390,432.662598 954.521423,469.407776 970.771606,507.000000
	C963.659119,507.000000 957.555176,507.000000 951.451294,507.000000
	C942.951904,506.999969 934.449768,506.879181 925.954651,507.069641
	C923.216064,507.131042 921.896912,506.255371 920.856567,503.729889
	C917.750488,496.189240 914.360962,488.764984 911.054138,481.307709
	C910.471375,479.993561 909.753235,478.739471 908.450134,476.191589
	C905.776917,491.775543 903.326843,506.058899 900.763916,521.000000
	C902.814819,521.000000 904.427856,521.000000 906.040833,521.000000
	C945.038086,521.000000 984.035583,520.944580 1023.032349,521.081116
	C1027.175659,521.095581 1028.557983,519.926453 1029.149536,515.670471
	C1030.901855,503.063477 1033.333252,490.550842 1035.499268,478.001373
	C1037.665405,465.451538 1039.835571,452.902374 1041.997681,440.351868
	C1044.214844,427.480865 1046.433716,414.610107 1048.626343,401.734955
	C1048.925415,399.979309 1049.077271,398.198578 1049.322266,396.227509
	C1073.400757,396.227509 1097.339600,396.227509 1122.577026,396.227509
	C1117.542847,399.155640 1113.457153,401.574799 1109.330444,403.921692
	C1104.076172,406.909851 1098.998413,410.354553 1093.442993,412.616119
	C1089.649170,414.160583 1088.665039,416.890625 1088.122559,419.998627
	C1083.994995,443.647247 1080.055908,467.328705 1076.002197,490.990356
	C1072.060425,513.999695 1067.996338,536.988220 1064.090576,560.003723
	C1060.974731,578.364502 1058.103882,596.766968 1054.965576,615.123840
	C1051.417114,635.880005 1047.682373,656.604248 1044.053345,677.346741
	C1043.576294,680.073608 1043.245605,682.826111 1042.818237,685.765259
	C1028.348633,685.765259 1014.058289,685.765259 999.296265,685.765259
	C983.488403,649.246643 967.585510,612.508606 951.349121,575.000000
	C962.371277,575.000000 972.482727,575.000000 982.594238,575.000000
	C985.427368,575.000000 988.260498,575.000000 991.093628,575.000000
	C1000.632629,575.000000 1000.524536,575.042114 1003.970642,583.883362
	C1006.516174,590.413879 1009.385071,596.818542 1012.136353,603.268005
	C1012.242065,603.515991 1012.623108,603.646484 1013.800964,604.509521
	C1016.296936,589.874634 1018.706909,575.743469 1021.221375,561.000000
	C1018.971863,561.000000 1017.180115,561.000000 1015.388428,561.000000
	C977.724365,561.000000 940.060364,561.000000 902.396301,561.000000
	C893.364868,561.000000 893.468994,561.017883 892.007751,569.517273
	C888.080383,592.361816 884.014771,615.182556 880.084229,638.026550
	C877.646851,652.192444 875.370178,666.385925 872.979858,680.560059
	C872.686462,682.299438 872.134705,683.995178 871.673401,685.827515
	C847.900818,685.827515 824.301697,685.827515 799.257874,685.827515
	C804.351807,682.886597 808.321899,680.563477 812.321777,678.292847
	C817.722839,675.226685 822.930481,671.672852 828.634216,669.336792
	C832.688782,667.676147 833.353516,664.679382 833.930176,661.415100
	C837.679199,640.193481 841.343567,618.956543 844.939331,597.708374
	C849.354248,571.620239 853.600647,545.503418 858.061707,519.423279
	C861.253662,500.762756 864.678894,482.142120 868.007874,463.064209
z"/>
</svg>
